<svg width="24" height="24" viewBox="0 0 24 24" fill="none" xmlns="http://www.w3.org/2000/svg">
<path d="M10.2117 1.90784C12.3913 1.83655 14.5164 2.59688 16.156 4.03479C17.7955 5.47273 18.8271 7.48073 19.0408 9.651C19.2544 11.8212 18.634 13.9913 17.3064 15.7213L17.282 15.7545L17.3103 15.7828L21.7625 20.2369V20.2379L21.7683 20.2418C21.8678 20.3418 21.9468 20.4602 22.0007 20.5905C22.055 20.7214 22.0827 20.8618 22.0828 21.0035C22.0828 21.1452 22.0549 21.2857 22.0007 21.4166C21.9465 21.5477 21.8667 21.6669 21.7664 21.7672C21.6661 21.8675 21.5468 21.9473 21.4158 22.0016C21.2848 22.0558 21.1444 22.0836 21.0027 22.0836C20.8609 22.0836 20.7206 22.0558 20.5896 22.0016C20.4586 21.9473 20.3393 21.8675 20.239 21.7672L15.783 17.3102L15.7546 17.2819L15.7214 17.3063C13.9914 18.6339 11.8213 19.2542 9.65112 19.0406C7.48085 18.827 5.47285 17.7954 4.03491 16.1559C2.597 14.5163 1.83667 12.3911 1.90796 10.2115C1.97929 8.03189 2.87663 5.96065 4.4187 4.41858C5.96078 2.8765 8.03201 1.97917 10.2117 1.90784ZM11.7527 4.20178C10.5071 3.95406 9.21607 4.08103 8.04272 4.56702C6.86933 5.05305 5.86653 5.87624 5.16089 6.93225C4.45531 7.98822 4.07795 9.22963 4.07788 10.4996C4.07963 12.2021 4.75697 13.8348 5.96069 15.0387C7.16457 16.2426 8.79723 16.9197 10.4998 16.9215C11.7699 16.9215 13.012 16.5451 14.0681 15.8395C15.1241 15.1338 15.9473 14.131 16.4333 12.9576C16.9194 11.7842 17.0464 10.4924 16.7986 9.2467C16.5507 8.00115 15.9388 6.85663 15.0408 5.95862C14.1427 5.0607 12.9982 4.44954 11.7527 4.20178Z" fill="#475569" stroke="#475569" stroke-width="0.09375"/>
</svg>
