<svg width="24" height="24" viewBox="0 0 24 24" fill="none" xmlns="http://www.w3.org/2000/svg">
<path d="M3 10.922H7.125C7.41094 10.922 7.68551 11.0352 7.8877 11.2374C8.08986 11.4396 8.20312 11.7142 8.20312 12.0001C8.2031 12.286 8.08986 12.5606 7.8877 12.7628C7.68551 12.9649 7.41092 13.0782 7.125 13.0782H3.32812V18.422H20.6719V13.0782H16.875C16.5891 13.0782 16.3145 12.9649 16.1123 12.7628C15.9101 12.5606 15.7969 12.286 15.7969 12.0001C15.7969 11.7142 15.9101 11.4396 16.1123 11.2374C16.3145 11.0352 16.5891 10.922 16.875 10.922H21C21.4848 10.922 21.9501 11.1143 22.293 11.4571C22.6358 11.8 22.8281 12.2653 22.8281 12.7501V18.7501C22.8281 19.2349 22.6358 19.7002 22.293 20.0431C21.9501 20.3859 21.4848 20.5782 21 20.5782H3C2.51517 20.5782 2.04987 20.3859 1.70703 20.0431C1.36421 19.7002 1.1719 19.2349 1.17188 18.7501V12.7501C1.17188 12.2653 1.36422 11.8 1.70703 11.4571C2.04987 11.1143 2.51515 10.922 3 10.922ZM17.3418 14.3243C17.6234 14.2684 17.9154 14.2975 18.1807 14.4073C18.4461 14.5173 18.6733 14.7036 18.833 14.9425C18.9927 15.1814 19.0781 15.4627 19.0781 15.7501C19.0781 16.1355 18.9248 16.5049 18.6523 16.7774C18.3798 17.0499 18.0104 17.2032 17.625 17.2032C17.3376 17.2032 17.0563 17.1178 16.8174 16.9581C16.5785 16.7984 16.3922 16.5712 16.2822 16.3058C16.1724 16.0404 16.1442 15.7485 16.2002 15.4669C16.2563 15.185 16.3945 14.926 16.5977 14.7227C16.8009 14.5195 17.0599 14.3804 17.3418 14.3243ZM12.001 1.17099C12.1427 1.171 12.2831 1.19872 12.4141 1.25302C12.5125 1.29391 12.6045 1.34952 12.6865 1.41708L12.7646 1.48837L17.2646 5.98837C17.3649 6.08865 17.4448 6.20796 17.499 6.33896C17.5532 6.46988 17.5811 6.61036 17.5811 6.75204C17.581 6.89377 17.5532 7.03418 17.499 7.16513C17.4447 7.29617 17.3649 7.41542 17.2646 7.51572C17.1644 7.61598 17.0451 7.69582 16.9141 7.75009C16.7831 7.80428 16.6427 7.83212 16.501 7.83212C16.3593 7.83212 16.2188 7.80427 16.0879 7.75009C15.9569 7.69583 15.8376 7.61596 15.7373 7.51572L13.1582 4.93564L13.0781 4.85556V12.0001C13.0781 12.286 12.9649 12.5606 12.7627 12.7628C12.5605 12.9649 12.2859 13.0782 12 13.0782C11.7141 13.0782 11.4395 12.9649 11.2373 12.7628C11.0351 12.5606 10.9219 12.286 10.9219 12.0001V4.85556L10.8418 4.93564L8.2627 7.51279L8.23535 7.54013V7.54111C8.03586 7.72676 7.77445 7.83211 7.50098 7.83212C7.21457 7.83212 6.93985 7.71821 6.7373 7.51572C6.53479 7.3132 6.42094 7.03844 6.4209 6.75204C6.4209 6.61035 6.44876 6.46988 6.50293 6.33896C6.5572 6.20795 6.63704 6.08865 6.7373 5.98837L11.2373 1.48837C11.3375 1.38786 11.4568 1.30744 11.5879 1.25302C11.7188 1.19874 11.8593 1.17099 12.001 1.17099Z" fill="#475569" stroke="#475569" stroke-width="0.09375"/>
</svg>
